<svg xmlns="http://www.w3.org/2000/svg" width="20" height="20" viewBox="0 0 20 20">
  <g id="그룹_29" data-name="그룹 29" transform="translate(-147 -1746)">
    <rect id="사각형_79" data-name="사각형 79" width="20" height="20" transform="translate(147 1746)" fill="none" opacity="0.195"/>
    <g id="visibility-2" transform="translate(148 1749.25)">
      <g id="그룹_19" data-name="그룹 19" transform="translate(6.759 4.508)">
        <g id="그룹_18" data-name="그룹 18">
          <path id="패스_4" data-name="패스 4" d="M196.918,192.652a.376.376,0,0,0-.532.532,2.258,2.258,0,1,1-3.193,3.193.376.376,0,1,0-.532.532,3.011,3.011,0,1,0,4.257-4.257Z" transform="translate(-192.55 -192.542)" fill="#b5b2b2"/>
        </g>
      </g>
      <g id="그룹_21" data-name="그룹 21" transform="translate(5.994 3.744)">
        <g id="그룹_20" data-name="그룹 20">
          <path id="패스_5" data-name="패스 5" d="M174.2,170.711a2.981,2.981,0,0,0-3.536,2.959,2.945,2.945,0,0,0,.053.525.377.377,0,0,0,.37.311.335.335,0,0,0,.066-.006.377.377,0,0,0,.3-.436,2.183,2.183,0,0,1-.041-.394,2.231,2.231,0,0,1,2.652-2.218.376.376,0,1,0,.131-.741Z" transform="translate(-170.668 -170.659)" fill="#b5b2b2"/>
        </g>
      </g>
      <g id="그룹_23" data-name="그룹 23" transform="translate(4.643 2.507)">
        <g id="그룹_22" data-name="그룹 22">
          <path id="패스_6" data-name="패스 6" d="M146.7,140.436a18.283,18.283,0,0,0-4.93-3.932.377.377,0,1,0-.346.669,17.687,17.687,0,0,1,4.483,3.506c-.9.972-4.428,4.516-8.151,4.516a8.678,8.678,0,0,1-3.785-.907.376.376,0,0,0-.327.677,9.412,9.412,0,0,0,4.111.982c4.638,0,8.77-4.821,8.944-5.026A.376.376,0,0,0,146.7,140.436Z" transform="translate(-133.435 -136.461)" fill="#b5b2b2"/>
        </g>
      </g>
      <g id="그룹_25" data-name="그룹 25" transform="translate(0 1.505)">
        <g id="그룹_24" data-name="그룹 24">
          <path id="패스_7" data-name="패스 7" d="M11.5,107.093a7.772,7.772,0,0,0-2.47-.434c-4.638,0-8.77,4.821-8.944,5.026a.376.376,0,0,0-.021.458,13.973,13.973,0,0,0,3.453,3.274.374.374,0,0,0,.521-.106.375.375,0,0,0-.105-.521,13.764,13.764,0,0,1-3.073-2.842c.866-.941,4.421-4.537,8.17-4.537a7.045,7.045,0,0,1,2.23.394.371.371,0,0,0,.476-.236A.376.376,0,0,0,11.5,107.093Z" transform="translate(0 -106.659)" fill="#b5b2b2"/>
        </g>
      </g>
      <g id="그룹_27" data-name="그룹 27" transform="translate(2.258 0)">
        <g id="그룹_26" data-name="그룹 26">
          <path id="패스_8" data-name="패스 8" d="M77.37,64.118a.374.374,0,0,0-.53,0L64.106,76.868a.375.375,0,0,0,.53.53L77.37,64.648A.376.376,0,0,0,77.37,64.118Z" transform="translate(-63.996 -64.008)" fill="#b5b2b2"/>
        </g>
      </g>
    </g>
  </g>
</svg>
